<svg id="Schiet_roos" data-name="Schiet roos" xmlns="http://www.w3.org/2000/svg" width="472" height="472" viewBox="0 0 472 472">
  <defs>
    <style>
      .cls-1, .cls-3 {
        fill: none;
      }

      .cls-1 {
        stroke: #f0f0f0;
      }

      .cls-2 {
        stroke: none;
      }
    </style>
  </defs>
  <g id="Group_1" data-name="Group 1">
    <g id="Ring_1" data-name="Ring 1" class="cls-1">
      <circle class="cls-2" cx="236" cy="236" r="236"/>
      <circle class="cls-3" cx="236" cy="236" r="235.5"/>
    </g>
    <g id="Ring_2" data-name="Ring 2" class="cls-1" transform="translate(24 24)">
      <circle class="cls-2" cx="212" cy="212" r="212"/>
      <circle class="cls-3" cx="212" cy="212" r="211.5"/>
    </g>
    <g id="Ring_3" data-name="Ring 3" class="cls-1" transform="translate(48 48)">
      <circle class="cls-2" cx="188" cy="188" r="188"/>
      <circle class="cls-3" cx="188" cy="188" r="187.5"/>
    </g>
    <g id="Ring_4" data-name="Ring 4" class="cls-1" transform="translate(72 72)">
      <circle class="cls-2" cx="164" cy="164" r="164"/>
      <circle class="cls-3" cx="164" cy="164" r="163.5"/>
    </g>
    <g id="Ring_5" data-name="Ring 5" class="cls-1" transform="translate(96 96)">
      <circle class="cls-2" cx="140" cy="140" r="140"/>
      <circle class="cls-3" cx="140" cy="140" r="139.5"/>
    </g>
    <g id="Ring_6" data-name="Ring 6" class="cls-1" transform="translate(120 120)">
      <circle class="cls-2" cx="116" cy="116" r="116"/>
      <circle class="cls-3" cx="116" cy="116" r="115.5"/>
    </g>
    <g id="Ring_7" data-name="Ring 7" class="cls-1" transform="translate(144 144)">
      <circle class="cls-2" cx="92" cy="92" r="92"/>
      <circle class="cls-3" cx="92" cy="92" r="91.5"/>
    </g>
    <g id="Ring_8" data-name="Ring 8" class="cls-1" transform="translate(168 168)">
      <circle class="cls-2" cx="68" cy="68" r="68"/>
      <circle class="cls-3" cx="68" cy="68" r="67.5"/>
    </g>
    <g id="Ring_9" data-name="Ring 9" class="cls-1" transform="translate(192 192)">
      <circle class="cls-2" cx="44" cy="44" r="44"/>
      <circle class="cls-3" cx="44" cy="44" r="43.5"/>
    </g>
    <g id="Ring_10" data-name="Ring 10" class="cls-1" transform="translate(216 216)">
      <circle class="cls-2" cx="20" cy="20" r="20"/>
      <circle class="cls-3" cx="20" cy="20" r="19.5"/>
    </g>
  </g>
</svg>
