<svg xmlns="http://www.w3.org/2000/svg" width="35" height="35" viewBox="0 0 35 35">
  <g id="Target_aim1" transform="translate(-1.126 -1.626)">
    <g id="Union_6" data-name="Union 6" transform="translate(-816 190)" stroke-linecap="round" stroke-linejoin="round">
      <path d="M 834.6257934570312 -153.6239013671875 C 833.9365844726562 -153.6239013671875 833.3759155273438 -154.1850128173828 833.3759155273438 -154.8747100830078 L 833.3759155273438 -156.6697845458984 C 830.1727905273438 -156.8894500732422 827.1224365234375 -158.2737121582031 824.7634887695312 -160.5837097167969 C 822.3380126953125 -162.9588317871094 820.8001098632812 -166.1681671142578 820.4303588867188 -169.6240997314453 L 818.6256103515625 -169.6240997314453 C 817.9364013671875 -169.6240997314453 817.375732421875 -170.184814453125 817.375732421875 -170.8740081787109 C 817.375732421875 -171.5632019042969 817.9364013671875 -172.1239013671875 818.6256103515625 -172.1239013671875 L 820.4514770507812 -172.1239013671875 C 820.6162719726562 -175.142578125 821.958984375 -178.1148223876953 824.2493896484375 -180.5180969238281 C 826.6642456054688 -183.0520629882812 829.895263671875 -184.6669006347656 833.3471069335938 -185.0651550292969 C 833.3539428710938 -185.0660400390625 833.363037109375 -185.0670776367188 833.3759155273438 -185.0682525634766 L 833.3759155273438 -186.8742065429688 C 833.3759155273438 -187.5634002685547 833.9365844726562 -188.1240997314453 834.6257934570312 -188.1240997314453 C 835.3150024414062 -188.1240997314453 835.875732421875 -187.5634002685547 835.875732421875 -186.8742065429688 L 835.875732421875 -185.0714416503906 C 839.1209106445312 -184.8614501953125 842.2130737304688 -183.44287109375 844.5858154296875 -181.0738830566406 C 846.9560546875 -178.7073516845703 848.4555053710938 -175.5341186523438 848.8182983398438 -172.1239013671875 L 850.6260375976562 -172.1239013671875 C 851.3152465820312 -172.1239013671875 851.8759155273438 -171.5632019042969 851.8759155273438 -170.8740081787109 C 851.8759155273438 -170.184814453125 851.3152465820312 -169.6240997314453 850.6260375976562 -169.6240997314453 L 848.82763671875 -169.6240997314453 C 848.6090087890625 -166.3902740478516 847.2044067382812 -163.3180999755859 844.8563232421875 -160.9495239257812 C 842.4839477539062 -158.5563659667969 839.3023681640625 -157.0471343994141 835.875732421875 -156.6844787597656 L 835.875732421875 -154.8747100830078 C 835.875732421875 -154.1850128173828 835.3150024414062 -153.6239013671875 834.6257934570312 -153.6239013671875 Z M 835.875732421875 -162.6786041259766 L 835.875732421875 -159.1863250732422 C 838.4189453125 -159.3894805908203 840.9846801757812 -160.6169586181641 842.9342651367188 -162.5664978027344 C 844.8132934570312 -164.4455871582031 845.9480590820312 -166.8197479248047 846.3079833984375 -169.6240997314453 L 842.791259765625 -169.6240997314453 C 842.603759765625 -167.9897308349609 841.854248046875 -166.4169464111328 840.6665649414062 -165.1746826171875 C 839.4014282226562 -163.8514709472656 837.7487182617188 -162.9912719726562 835.875732421875 -162.6786041259766 Z M 822.9337768554688 -169.6240997314453 C 823.14453125 -167.07421875 824.3681640625 -164.5157318115234 826.3173828125 -162.5664978027344 C 828.2028198242188 -160.6811065673828 830.5765991210938 -159.5480346679688 833.3759155273438 -159.1962890625 L 833.3759155273438 -162.7091674804688 C 831.7171020507812 -162.9034576416016 830.1407470703125 -163.6621856689453 828.914794921875 -164.8610076904297 C 827.6322631835938 -166.1151428222656 826.7918090820312 -167.7582702636719 826.4760131835938 -169.6240997314453 L 822.9337768554688 -169.6240997314453 Z M 835.875732421875 -167.8718872070312 L 835.875732421875 -165.24072265625 C 837.9171752929688 -165.6065979003906 839.616455078125 -167.3187713623047 840.224365234375 -169.6240997314453 L 837.4906005859375 -169.6240997314453 C 837.362060546875 -169.382080078125 837.1276245117188 -168.9891357421875 836.8140869140625 -168.6659393310547 C 836.4533081054688 -168.2942352294922 836.0637817382812 -168.0040893554688 835.875732421875 -167.8718872070312 Z M 828.9937744140625 -169.6240997314453 C 829.1204223632812 -168.7665252685547 829.6055297851562 -167.8496398925781 830.3526000976562 -167.0693359375 C 831.1683959960938 -166.2173156738281 832.2325439453125 -165.5880279541016 833.3759155273438 -165.2764892578125 L 833.3759155273438 -167.9030303955078 C 833.0599975585938 -168.0557861328125 832.59716796875 -168.3163299560547 832.2556762695312 -168.6651153564453 C 831.9307250976562 -168.9963073730469 831.7261352539062 -169.3666229248047 831.6102905273438 -169.6240997314453 L 828.9937744140625 -169.6240997314453 Z M 842.7791137695312 -172.1239013671875 L 846.3192138671875 -172.1239013671875 C 846.1036987304688 -174.6787719726562 844.879638671875 -177.2379913330078 842.9342651367188 -179.1833190917969 C 841.0489501953125 -181.0686340332031 838.675537109375 -182.2012786865234 835.875732421875 -182.5524597167969 L 835.875732421875 -179.0423126220703 C 837.486328125 -178.8516235351562 839.0352172851562 -178.100830078125 840.2594604492188 -176.9126281738281 C 841.5592651367188 -175.6510620117188 842.429443359375 -173.9966735839844 842.7791137695312 -172.1239013671875 Z M 837.5408325195312 -172.1239013671875 L 840.2474365234375 -172.1239013671875 C 840.0791625976562 -173.0962677001953 839.5673217773438 -174.0482940673828 838.7947387695312 -174.8201599121094 C 838.009033203125 -175.6051635742188 837.0048828125 -176.1711578369141 835.875732421875 -176.4682769775391 L 835.875732421875 -173.9007110595703 C 836.0681762695312 -173.7690582275391 836.4644165039062 -173.4809875488281 836.814453125 -173.1185760498047 C 837.1631469726562 -172.7576446533203 837.4208984375 -172.3370056152344 837.5408325195312 -172.1239013671875 Z M 829.024169921875 -172.1239013671875 L 831.5653076171875 -172.1239013671875 C 831.666748046875 -172.3558044433594 831.8858642578125 -172.7752685546875 832.2637939453125 -173.1277313232422 C 832.59814453125 -173.4405670166016 833.0609130859375 -173.7020874023438 833.3759155273438 -173.8605041503906 L 833.3759155273438 -176.5008239746094 C 832.431640625 -176.3323211669922 831.506103515625 -175.8424682617188 830.7451171875 -175.1036224365234 C 829.9283447265625 -174.3106079101562 829.3364868164062 -173.2844085693359 829.024169921875 -172.1239013671875 Z M 822.9133911132812 -172.1239013671875 L 826.4655151367188 -172.1239013671875 C 826.85595703125 -175.5371551513672 829.6672973632812 -178.3402709960938 833.3759155273438 -179.0225830078125 L 833.3759155273438 -182.5634613037109 C 830.8322143554688 -182.3597869873047 828.2672729492188 -181.1331787109375 826.3173828125 -179.1833190917969 C 824.5137939453125 -177.3797607421875 823.3112182617188 -174.8817443847656 822.9133911132812 -172.1239013671875 Z" stroke="none"/>
      <path d="M 834.6257934570312 -153.8739013671875 C 835.1784057617188 -153.8739013671875 835.625732421875 -154.3220977783203 835.625732421875 -154.8747100830078 L 835.625732421875 -156.9111175537109 C 842.8107299804688 -157.5630493164062 848.2601928710938 -163.1766204833984 848.5918579101562 -169.8740997314453 L 850.6260375976562 -169.8740997314453 C 851.177734375 -169.8740997314453 851.6259155273438 -170.3223114013672 851.6259155273438 -170.8740081787109 C 851.6259155273438 -171.4266052246094 851.177734375 -171.8739013671875 850.6260375976562 -171.8739013671875 L 848.590087890625 -171.8739013671875 C 848.58837890625 -171.9078979492188 848.5866088867188 -171.9330749511719 848.5848388671875 -171.9477081298828 C 847.9017333984375 -179.0451049804688 842.39013671875 -184.422607421875 835.8129272460938 -184.8249053955078 C 835.75830078125 -184.8285827636719 835.6953125 -184.8317260742188 835.625732421875 -184.8344268798828 L 835.625732421875 -186.8742065429688 C 835.625732421875 -187.4268035888672 835.1784057617188 -187.8740997314453 834.6257934570312 -187.8740997314453 C 834.0732421875 -187.8740997314453 833.6259155273438 -187.4268035888672 833.6259155273438 -186.8742065429688 L 833.6259155273438 -184.8309936523438 C 833.5037841796875 -184.8266906738281 833.4150390625 -184.8218536376953 833.375732421875 -184.8168029785156 C 826.227294921875 -183.9920654296875 820.8981323242188 -178.0326995849609 820.690673828125 -171.8739013671875 L 818.6256103515625 -171.8739013671875 C 818.072998046875 -171.8739013671875 817.625732421875 -171.4266052246094 817.625732421875 -170.8740081787109 C 817.625732421875 -170.3223114013672 818.072998046875 -169.8740997314453 818.6256103515625 -169.8740997314453 L 820.6668701171875 -169.8740997314453 C 820.6685180664062 -169.7847290039062 820.671142578125 -169.7196197509766 820.6749267578125 -169.6887054443359 C 821.4155883789062 -162.5945281982422 826.9865112304688 -157.2403259277344 833.6259155273438 -156.9053344726562 L 833.6259155273438 -154.8747100830078 C 833.6259155273438 -154.3220977783203 834.0732421875 -153.8739013671875 834.6257934570312 -153.8739013671875 M 822.6659545898438 -169.8740997314453 L 826.6896362304688 -169.8740997314453 C 827.265625 -165.9420013427734 830.201416015625 -163.2276000976562 833.6259155273438 -162.9351043701172 L 833.6259155273438 -158.9155578613281 C 833.6224365234375 -158.9158935546875 833.619384765625 -158.916259765625 833.616943359375 -158.9166107177734 C 830.6028442382812 -159.2388000488281 828.0945434570312 -160.4358062744141 826.140625 -162.3897094726562 C 824.0380859375 -164.4922332763672 822.8114013671875 -167.2377624511719 822.6659545898438 -169.8740997314453 M 842.564697265625 -169.8740997314453 L 846.5813598632812 -169.8740997314453 C 846.5773315429688 -169.7883758544922 846.5730590820312 -169.7259063720703 846.56884765625 -169.6959075927734 C 846.2115478515625 -166.7474975585938 845.0234985351562 -164.3022003173828 843.1110229492188 -162.3897094726562 C 841.043701171875 -160.3224029541016 838.3554077148438 -159.1020050048828 835.7760009765625 -158.9282989501953 C 835.7306518554688 -158.9248962402344 835.6802368164062 -158.9218444824219 835.625732421875 -158.9191131591797 L 835.625732421875 -162.8928070068359 C 839.6181030273438 -163.4652099609375 842.28125 -166.5458984375 842.5629272460938 -169.8534088134766 C 842.5638427734375 -169.8606109619141 842.5638427734375 -169.8668975830078 842.564697265625 -169.8740997314453 M 837.3375244140625 -169.8740997314453 L 840.54150390625 -169.8740997314453 C 839.942138671875 -167.1165008544922 837.9161987304688 -165.2192993164062 835.625732421875 -164.9511108398438 L 835.625732421875 -168.00390625 C 835.625732421875 -168.00390625 836.1603393554688 -168.3513031005859 836.6346435546875 -168.8400115966797 C 836.985595703125 -169.2017974853516 837.2330932617188 -169.6598968505859 837.3375244140625 -169.8740997314453 M 828.7164306640625 -169.8740997314453 L 831.7764282226562 -169.8740997314453 C 831.857421875 -169.6652984619141 832.060791015625 -169.220703125 832.434326171875 -168.8400115966797 C 832.8141479492188 -168.4521026611328 833.3703002929688 -168.1766967773438 833.6259155273438 -168.0624084472656 L 833.6259155273438 -164.9573974609375 C 833.625 -164.9573974609375 833.6232299804688 -164.9582977294922 833.622314453125 -164.9582977294922 C 830.84130859375 -165.572998046875 828.837890625 -167.8733978271484 828.7164306640625 -169.8740997314453 M 835.625732421875 -182.8330535888672 C 838.6436767578125 -182.5128479003906 841.1558227539062 -181.3153381347656 843.1110229492188 -179.360107421875 C 845.211181640625 -177.2599639892578 846.4366455078125 -174.5191497802734 846.5874633789062 -171.8739013671875 L 842.5610961914062 -171.8739013671875 C 842.556640625 -171.9351043701172 842.5521240234375 -171.9792022705078 842.547607421875 -171.9999084472656 C 841.8672485351562 -175.8177032470703 838.96923828125 -178.5321044921875 835.625732421875 -178.8164978027344 L 835.625732421875 -182.8330535888672 M 835.625732421875 -176.7852020263672 C 838.3193969726562 -176.2020111083984 840.222900390625 -174.1941070556641 840.51904296875 -172.0026092529297 C 840.5253295898438 -171.9638977050781 840.5307006835938 -171.9207000732422 840.5352172851562 -171.8739013671875 L 837.3915405273438 -171.8739013671875 C 837.3636474609375 -171.9297027587891 837.0693359375 -172.4949035644531 836.6346435546875 -172.9449005126953 C 836.176513671875 -173.4192047119141 835.625732421875 -173.7666015625 835.625732421875 -173.7666015625 L 835.625732421875 -176.7852020263672 M 833.6259155273438 -176.7879028320312 L 833.6259155273438 -173.7044982910156 C 833.3703002929688 -173.5830078125 832.8123168945312 -173.2985992431641 832.434326171875 -172.9449005126953 C 831.9537353515625 -172.4967041015625 831.75390625 -171.9297027587891 831.7350463867188 -171.8739013671875 L 828.7101440429688 -171.8739013671875 C 828.7137451171875 -171.9063110351562 828.7173461914062 -171.9297027587891 828.720947265625 -171.9423065185547 C 829.3500366210938 -174.6468048095703 831.3975219726562 -176.5314025878906 833.6043090820312 -176.7870025634766 L 833.6259155273438 -176.7879028320312 M 833.6259155273438 -182.8241577148438 L 833.6259155273438 -178.81201171875 C 829.7828979492188 -178.1937103271484 827.027099609375 -175.3173065185547 826.7012939453125 -171.9765014648438 C 826.6976928710938 -171.9450073242188 826.6950073242188 -171.9107971191406 826.6923217773438 -171.8739013671875 L 822.627685546875 -171.8739013671875 C 822.991455078125 -174.8155212402344 824.234375 -177.4538879394531 826.140625 -179.360107421875 C 828.2142333984375 -181.4337005615234 830.913330078125 -182.6549987792969 833.5026245117188 -182.8233032226562 L 833.6259155273438 -182.8241577148438 M 834.6257934570312 -153.3739013671875 C 833.7987670898438 -153.3739013671875 833.1259155273438 -154.0471649169922 833.1259155273438 -154.8747100830078 L 833.1259155273438 -156.4383697509766 C 829.94873046875 -156.7117614746094 826.932861328125 -158.1094055175781 824.5885620117188 -160.4050903320312 C 822.1740112304688 -162.7695159912109 820.6244506835938 -165.9457397460938 820.2073364257812 -169.3740997314453 L 818.6256103515625 -169.3740997314453 C 817.798583984375 -169.3740997314453 817.125732421875 -170.0469665527344 817.125732421875 -170.8740081787109 C 817.125732421875 -171.7010498046875 817.798583984375 -172.3739013671875 818.6256103515625 -172.3739013671875 L 820.2171020507812 -172.3739013671875 C 820.4404907226562 -175.3704528808594 821.7965087890625 -178.3067321777344 824.068359375 -180.6905670166016 C 826.4785766601562 -183.2196044921875 829.6886596679688 -184.84814453125 833.1259155273438 -185.2900390625 L 833.1259155273438 -186.8742065429688 C 833.1259155273438 -187.7012481689453 833.7987670898438 -188.3740997314453 834.6257934570312 -188.3740997314453 C 835.452880859375 -188.3740997314453 836.125732421875 -187.7012481689453 836.125732421875 -186.8742065429688 L 836.125732421875 -185.3037414550781 C 839.344970703125 -185.0386505126953 842.4035034179688 -183.6060485839844 844.762451171875 -181.2508087158203 C 847.121337890625 -178.8956451416016 848.632080078125 -175.7559814453125 849.0414428710938 -172.3739013671875 L 850.6260375976562 -172.3739013671875 C 851.4530639648438 -172.3739013671875 852.1259155273438 -171.7010498046875 852.1259155273438 -170.8740081787109 C 852.1259155273438 -170.0469665527344 851.4530639648438 -169.3740997314453 850.6260375976562 -169.3740997314453 L 849.0592651367188 -169.3740997314453 C 848.7862548828125 -166.1660308837891 847.3678588867188 -163.1279144287109 845.0338745117188 -160.7735290527344 C 842.6727905273438 -158.3917541503906 839.5240478515625 -156.870849609375 836.125732421875 -156.4611968994141 L 836.125732421875 -154.8747100830078 C 836.125732421875 -154.0471649169922 835.452880859375 -153.3739013671875 834.6257934570312 -153.3739013671875 Z M 836.125732421875 -162.4692535400391 L 836.125732421875 -159.4610595703125 C 838.522705078125 -159.7223205566406 840.9187622070312 -160.9045562744141 842.7574462890625 -162.7432556152344 C 844.5333862304688 -164.5191802978516 845.630126953125 -166.7482757568359 846.0209350585938 -169.3740997314453 L 843.0108032226562 -169.3740997314453 C 842.7772827148438 -167.7656860351562 842.0188598632812 -166.2273254394531 840.8472290039062 -165.0019073486328 C 839.5917358398438 -163.6887359619141 837.9664306640625 -162.8185119628906 836.125732421875 -162.4692535400391 Z M 823.2091674804688 -169.3740997314453 C 823.4764404296875 -166.9727630615234 824.6553344726562 -164.5820922851562 826.4942016601562 -162.7432708740234 C 828.2760009765625 -160.9614715576172 830.5047607421875 -159.8660888671875 833.1259155273438 -159.4825744628906 L 833.1259155273438 -162.4900360107422 C 831.4937744140625 -162.7299346923828 829.950927734375 -163.4981689453125 828.739990234375 -164.6822662353516 C 827.4673461914062 -165.9267120361328 826.61767578125 -167.5418090820312 826.2670288085938 -169.3740997314453 L 823.2091674804688 -169.3740997314453 Z M 836.125732421875 -167.7437744140625 L 836.125732421875 -165.5498809814453 C 837.8482055664062 -165.9808502197266 839.2780151367188 -167.4318542480469 839.8917846679688 -169.3740997314453 L 837.6389770507812 -169.3740997314453 C 837.4908447265625 -169.1125793457031 837.2733764648438 -168.7803649902344 836.9935302734375 -168.4918670654297 C 836.6783447265625 -168.1671295166016 836.341552734375 -167.9019165039062 836.125732421875 -167.7437744140625 Z M 829.2916259765625 -169.3740997314453 C 829.682373046875 -167.6474151611328 831.4078369140625 -166.2022857666016 833.1259155273438 -165.6166687011719 L 833.1259155273438 -167.7486724853516 C 832.80517578125 -167.914794921875 832.394775390625 -168.1657257080078 832.0770874023438 -168.4902038574219 C 831.7852172851562 -168.7876281738281 831.583740234375 -169.1136322021484 831.45263671875 -169.3740997314453 L 829.2916259765625 -169.3740997314453 Z M 842.9845581054688 -172.3739013671875 L 846.0433349609375 -172.3739013671875 C 845.7719116210938 -174.7799072265625 844.5926513671875 -177.1713714599609 842.7574462890625 -179.0065460205078 C 840.9759521484375 -180.7880859375 838.7469482421875 -181.8831481933594 836.125732421875 -182.2662353515625 L 836.125732421875 -179.2610321044922 C 837.7109985351562 -179.0240020751953 839.2258911132812 -178.26416015625 840.43359375 -177.0920257568359 C 841.7232666015625 -175.8402709960938 842.6015014648438 -174.2139892578125 842.9845581054688 -172.3739013671875 Z M 837.6844482421875 -172.3739013671875 L 839.9393920898438 -172.3739013671875 C 839.7354736328125 -173.1931304931641 839.2762451171875 -173.9857330322266 838.6181030273438 -174.643310546875 C 837.9371337890625 -175.3236236572266 837.0844116210938 -175.8328399658203 836.125732421875 -176.1357727050781 L 836.125732421875 -174.03076171875 C 836.3461303710938 -173.8732604980469 836.687255859375 -173.610107421875 836.9942626953125 -173.2922668457031 C 837.3001708984375 -172.9755859375 837.5397338867188 -172.6154327392578 837.6844482421875 -172.3739013671875 Z M 829.3585815429688 -172.3739013671875 L 831.4053955078125 -172.3739013671875 C 831.5343627929688 -172.6341705322266 831.7538452148438 -172.9939880371094 832.0933227539062 -173.3105621337891 C 832.3963012695312 -173.5940704345703 832.786865234375 -173.8343048095703 833.1259155273438 -174.01318359375 L 833.1259155273438 -176.1911926269531 C 832.3331909179688 -175.9898376464844 831.5651245117188 -175.5513000488281 830.9193115234375 -174.9242553710938 C 830.2095336914062 -174.2351226806641 829.67626953125 -173.3614959716797 829.3585815429688 -172.3739013671875 Z M 823.2051391601562 -172.3739013671875 L 826.2460327148438 -172.3739013671875 C 826.7352905273438 -175.7346038818359 829.491943359375 -178.4788360595703 833.1259155273438 -179.2285003662109 L 833.1259155273438 -182.2887268066406 C 830.7299194335938 -182.0274200439453 828.3334350585938 -180.8458099365234 826.4942016601562 -179.0065460205078 C 824.791015625 -177.3034057617188 823.6349487304688 -174.9649505615234 823.2051391601562 -172.3739013671875 Z" stroke="none" fill="#fff"/>
    </g>
  </g>
</svg>
