<svg xmlns="http://www.w3.org/2000/svg" width="33" height="33" viewBox="0 0 33 33">
  <g id="Target_aim2" transform="translate(-878.5 201.5)" stroke-linecap="round" stroke-linejoin="round">
    <path d="M 894.9996337890625 -168.7501983642578 C 894.1932983398438 -168.7501983642578 893.5372924804688 -169.4061889648438 893.5372924804688 -170.2125091552734 L 893.5372924804688 -171.6701049804688 C 890.51708984375 -171.9976501464844 887.67724609375 -173.3585815429688 885.51806640625 -175.5178527832031 C 883.3590087890625 -177.6770477294922 881.998291015625 -180.5172882080078 881.6710815429688 -183.5372009277344 L 880.212646484375 -183.5372009277344 C 879.4063110351562 -183.5372009277344 878.7503051757812 -184.1931915283203 878.7503051757812 -184.99951171875 C 878.7503051757812 -185.8063201904297 879.4063110351562 -186.4627075195312 880.212646484375 -186.4627075195312 L 881.6710815429688 -186.4627075195312 C 881.998291015625 -189.482666015625 883.3590087890625 -192.3228759765625 885.51806640625 -194.4819488525391 C 887.6771850585938 -196.6410369873047 890.517333984375 -198.0017242431641 893.5372924804688 -198.3289337158203 L 893.5372924804688 -199.7873992919922 C 893.5372924804688 -200.5937194824219 894.1932983398438 -201.2497100830078 894.9996337890625 -201.2497100830078 C 895.8064575195312 -201.2497100830078 896.4628295898438 -200.5937194824219 896.4628295898438 -199.7873992919922 L 896.4628295898438 -198.3289337158203 C 899.4827880859375 -198.0017242431641 902.322998046875 -196.6410369873047 904.4820556640625 -194.4819488525391 C 906.64111328125 -192.3228607177734 908.0018310546875 -189.482666015625 908.3290405273438 -186.4627075195312 L 909.7875366210938 -186.4627075195312 C 910.5938110351562 -186.4627075195312 911.2498168945312 -185.8063201904297 911.2498168945312 -184.99951171875 C 911.2498168945312 -184.1931915283203 910.5938110351562 -183.5372009277344 909.7875366210938 -183.5372009277344 L 908.3290405273438 -183.5372009277344 C 908.0018310546875 -180.5172882080078 906.6411743164062 -177.6770629882812 904.4820556640625 -175.5178527832031 C 902.3228759765625 -173.3585968017578 899.4830322265625 -171.9976501464844 896.4628295898438 -171.6701049804688 L 896.4628295898438 -170.2125091552734 C 896.4628295898438 -169.4061889648438 895.8064575195312 -168.7501983642578 894.9996337890625 -168.7501983642578 Z M 894.9996337890625 -179.0521087646484 C 895.8064575195312 -179.0521087646484 896.4628295898438 -178.3961181640625 896.4628295898438 -177.5897979736328 L 896.4628295898438 -174.6063385009766 C 898.698486328125 -174.9269256591797 900.8013305664062 -175.9794464111328 902.4109497070312 -177.5890502929688 C 904.0205688476562 -179.1986694335938 905.0730590820312 -181.3015441894531 905.3936767578125 -183.5372009277344 L 902.4102172851562 -183.5372009277344 C 901.6039428710938 -183.5372009277344 900.9479370117188 -184.1931915283203 900.9479370117188 -184.99951171875 C 900.9479370117188 -185.8063201904297 901.6039428710938 -186.4627075195312 902.4102172851562 -186.4627075195312 L 905.3936767578125 -186.4627075195312 C 905.0730590820312 -188.6982574462891 904.0205688476562 -190.8009948730469 902.4109497070312 -192.4105072021484 C 900.8014526367188 -194.0198974609375 898.6986083984375 -195.0725250244141 896.4628295898438 -195.3935241699219 L 896.4628295898438 -192.4101104736328 C 896.4628295898438 -191.6037902832031 895.8064575195312 -190.9477996826172 894.9996337890625 -190.9477996826172 C 894.1932983398438 -190.9477996826172 893.5372924804688 -191.6037902832031 893.5372924804688 -192.4101104736328 L 893.5372924804688 -195.3935241699219 C 891.3016357421875 -195.0725250244141 889.1989135742188 -194.0199279785156 887.5894775390625 -192.4105072021484 C 885.9801025390625 -190.8011016845703 884.927490234375 -188.6983795166016 884.6065063476562 -186.4627075195312 L 887.5899047851562 -186.4627075195312 C 888.396240234375 -186.4627075195312 889.05224609375 -185.8063201904297 889.05224609375 -184.99951171875 C 889.05224609375 -184.1931915283203 888.396240234375 -183.5372009277344 887.5899047851562 -183.5372009277344 L 884.6065063476562 -183.5372009277344 C 884.927490234375 -181.3014221191406 885.9801025390625 -179.1985626220703 887.5895385742188 -177.5890502929688 C 889.1990356445312 -175.9794311523438 891.3017578125 -174.9269256591797 893.5372924804688 -174.6063385009766 L 893.5372924804688 -177.5897979736328 C 893.5372924804688 -178.3961181640625 894.1932983398438 -179.0521087646484 894.9996337890625 -179.0521087646484 Z M 895.0005493164062 -181.8866119384766 C 893.2835693359375 -181.8866119384766 891.88671875 -183.2830505371094 891.88671875 -184.99951171875 C 891.88671875 -186.7164764404297 893.2835693359375 -188.1133117675781 895.0005493164062 -188.1133117675781 C 896.7169799804688 -188.1133117675781 898.1134033203125 -186.7164764404297 898.1134033203125 -184.99951171875 C 898.1134033203125 -183.2830505371094 896.7169799804688 -181.8866119384766 895.0005493164062 -181.8866119384766 Z" stroke="none"/>
    <path d="M 894.9996337890625 -169.0001983642578 C 895.6737060546875 -169.0001983642578 896.2128295898438 -169.539306640625 896.2128295898438 -170.2125091552734 L 896.2128295898438 -171.8964080810547 C 902.5119018554688 -172.4697113037109 907.5303344726562 -177.4880981445312 908.1027221679688 -183.7872009277344 L 909.7875366210938 -183.7872009277344 C 910.460693359375 -183.7872009277344 910.9998168945312 -184.3263092041016 910.9998168945312 -184.99951171875 C 910.9998168945312 -185.6735992431641 910.460693359375 -186.2127075195312 909.7875366210938 -186.2127075195312 L 908.1027221679688 -186.2127075195312 C 907.5303344726562 -192.5118103027344 902.5119018554688 -197.5302124023438 896.2128295898438 -198.1026000976562 L 896.2128295898438 -199.7873992919922 C 896.2128295898438 -200.4606018066406 895.6737060546875 -200.9997100830078 894.9996337890625 -200.9997100830078 C 894.326416015625 -200.9997100830078 893.7872924804688 -200.4606018066406 893.7872924804688 -199.7873992919922 L 893.7872924804688 -198.1026000976562 C 887.4882202148438 -197.5302124023438 882.4698486328125 -192.5118103027344 881.8973999023438 -186.2127075195312 L 880.212646484375 -186.2127075195312 C 879.5394287109375 -186.2127075195312 879.0003051757812 -185.6735992431641 879.0003051757812 -184.99951171875 C 879.0003051757812 -184.3263092041016 879.5394287109375 -183.7872009277344 880.212646484375 -183.7872009277344 L 881.8973999023438 -183.7872009277344 C 882.4698486328125 -177.4880981445312 887.4882202148438 -172.4697113037109 893.7872924804688 -171.8964080810547 L 893.7872924804688 -170.2125091552734 C 893.7872924804688 -169.539306640625 894.326416015625 -169.0001983642578 894.9996337890625 -169.0001983642578 M 894.9996337890625 -178.8021087646484 C 894.326416015625 -178.8021087646484 893.7872924804688 -178.2630004882812 893.7872924804688 -177.5897979736328 L 893.7872924804688 -174.3218994140625 C 888.8355102539062 -174.8943023681641 884.8953247070312 -178.8354034423828 884.322021484375 -183.7872009277344 L 887.5899047851562 -183.7872009277344 C 888.2631225585938 -183.7872009277344 888.80224609375 -184.3263092041016 888.80224609375 -184.99951171875 C 888.80224609375 -185.6735992431641 888.2631225585938 -186.2127075195312 887.5899047851562 -186.2127075195312 L 884.322021484375 -186.2127075195312 C 884.8953247070312 -191.1645050048828 888.8355102539062 -195.1047058105469 893.7872924804688 -195.6780090332031 L 893.7872924804688 -192.4101104736328 C 893.7872924804688 -191.7369079589844 894.326416015625 -191.1977996826172 894.9996337890625 -191.1977996826172 C 895.6737060546875 -191.1977996826172 896.2128295898438 -191.7369079589844 896.2128295898438 -192.4101104736328 L 896.2128295898438 -195.6780090332031 C 901.1646118164062 -195.1047058105469 905.105712890625 -191.1645050048828 905.6781005859375 -186.2127075195312 L 902.4102172851562 -186.2127075195312 C 901.7369995117188 -186.2127075195312 901.1979370117188 -185.6735992431641 901.1979370117188 -184.99951171875 C 901.1979370117188 -184.3263092041016 901.7369995117188 -183.7872009277344 902.4102172851562 -183.7872009277344 L 905.6781005859375 -183.7872009277344 C 905.105712890625 -178.8354034423828 901.1646118164062 -174.8943023681641 896.2128295898438 -174.3218994140625 L 896.2128295898438 -177.5897979736328 C 896.2128295898438 -178.2630004882812 895.6737060546875 -178.8021087646484 894.9996337890625 -178.8021087646484 M 895.0005493164062 -182.1366119384766 C 896.5809326171875 -182.1366119384766 897.8634033203125 -183.4190979003906 897.8634033203125 -184.99951171875 C 897.8634033203125 -186.580810546875 896.5809326171875 -187.8633117675781 895.0005493164062 -187.8633117675781 C 893.4192504882812 -187.8633117675781 892.13671875 -186.580810546875 892.13671875 -184.99951171875 C 892.13671875 -183.4190979003906 893.4192504882812 -182.1366119384766 895.0005493164062 -182.1366119384766 M 894.9996337890625 -168.5001983642578 C 894.055419921875 -168.5001983642578 893.2872924804688 -169.2683410644531 893.2872924804688 -170.2125091552734 L 893.2872924804688 -171.4476470947266 C 890.2940063476562 -171.8228302001953 887.4874877929688 -173.1948089599609 885.34130859375 -175.3410797119141 C 883.195068359375 -177.4874267578125 881.8233642578125 -180.2939758300781 881.4486083984375 -183.2872009277344 L 880.212646484375 -183.2872009277344 C 879.2684326171875 -183.2872009277344 878.5003051757812 -184.0553436279297 878.5003051757812 -184.99951171875 C 878.5003051757812 -185.9441680908203 879.2684326171875 -186.7127075195312 880.212646484375 -186.7127075195312 L 881.4486083984375 -186.7127075195312 C 881.8233642578125 -189.7059631347656 883.195068359375 -192.5124969482422 885.34130859375 -194.6587219238281 C 887.487548828125 -196.8049621582031 890.2940673828125 -198.1766510009766 893.2872924804688 -198.5514373779297 L 893.2872924804688 -199.7873992919922 C 893.2872924804688 -200.7315673828125 894.055419921875 -201.4997100830078 894.9996337890625 -201.4997100830078 C 895.9442749023438 -201.4997100830078 896.7128295898438 -200.7315673828125 896.7128295898438 -199.7873992919922 L 896.7128295898438 -198.5514373779297 C 899.7060546875 -198.1766662597656 902.5125732421875 -196.8049621582031 904.6588134765625 -194.6587219238281 C 906.8050537109375 -192.5124969482422 908.1767578125 -189.7059631347656 908.5515747070312 -186.7127075195312 L 909.7875366210938 -186.7127075195312 C 910.731689453125 -186.7127075195312 911.4998168945312 -185.9441680908203 911.4998168945312 -184.99951171875 C 911.4998168945312 -184.0553436279297 910.731689453125 -183.2872009277344 909.7875366210938 -183.2872009277344 L 908.5515747070312 -183.2872009277344 C 908.1766967773438 -180.2942047119141 906.804931640625 -177.4872894287109 904.6588134765625 -175.3410797119141 C 902.5126953125 -173.1948089599609 899.7061157226562 -171.8228302001953 896.7128295898438 -171.4476470947266 L 896.7128295898438 -170.2125091552734 C 896.7128295898438 -169.2683410644531 895.9442749023438 -168.5001983642578 894.9996337890625 -168.5001983642578 Z M 894.9996337890625 -179.3021087646484 C 895.9442749023438 -179.3021087646484 896.7128295898438 -178.5339660644531 896.7128295898438 -177.5897979736328 L 896.7128295898438 -174.89892578125 C 898.7882690429688 -175.2576751708984 900.7314453125 -176.2630615234375 902.2341918945312 -177.7658386230469 C 903.7369384765625 -179.2685852050781 904.7423095703125 -181.2117462158203 905.10107421875 -183.2872009277344 L 902.4102172851562 -183.2872009277344 C 901.466064453125 -183.2872009277344 900.6979370117188 -184.0553436279297 900.6979370117188 -184.99951171875 C 900.6979370117188 -185.9441680908203 901.466064453125 -186.7127075195312 902.4102172851562 -186.7127075195312 L 905.10107421875 -186.7127075195312 C 904.7423706054688 -188.7880401611328 903.7369384765625 -190.7310638427734 902.2341918945312 -192.2337188720703 C 900.7315063476562 -193.7362976074219 898.7883911132812 -194.7417755126953 896.7128295898438 -195.1008758544922 L 896.7128295898438 -192.4101104736328 C 896.7128295898438 -191.4659423828125 895.9442749023438 -190.6977996826172 894.9996337890625 -190.6977996826172 C 894.055419921875 -190.6977996826172 893.2872924804688 -191.4659423828125 893.2872924804688 -192.4101104736328 L 893.2872924804688 -195.1008758544922 C 891.2118530273438 -194.7417907714844 889.2688598632812 -193.7363128662109 887.7662963867188 -192.2337341308594 C 886.2637329101562 -190.7311553955078 885.2582397460938 -188.7881774902344 884.899169921875 -186.7127075195312 L 887.5899047851562 -186.7127075195312 C 888.5341186523438 -186.7127075195312 889.30224609375 -185.9441680908203 889.30224609375 -184.99951171875 C 889.30224609375 -184.0553436279297 888.5341186523438 -183.2872009277344 887.5899047851562 -183.2872009277344 L 884.899169921875 -183.2872009277344 C 885.2582397460938 -181.2116241455078 886.2637329101562 -179.2684936523438 887.7662963867188 -177.7658081054688 C 889.2689208984375 -176.2630615234375 891.2119750976562 -175.2576599121094 893.2872924804688 -174.8989410400391 L 893.2872924804688 -177.5897979736328 C 893.2872924804688 -178.5339660644531 894.055419921875 -179.3021087646484 894.9996337890625 -179.3021087646484 Z M 895.0005493164062 -181.6366119384766 C 893.145751953125 -181.6366119384766 891.63671875 -183.1452026367188 891.63671875 -184.99951171875 C 891.63671875 -186.8543243408203 893.145751953125 -188.3633117675781 895.0005493164062 -188.3633117675781 C 896.8548583984375 -188.3633117675781 898.3634033203125 -186.8543243408203 898.3634033203125 -184.99951171875 C 898.3634033203125 -183.1452026367188 896.8548583984375 -181.6366119384766 895.0005493164062 -181.6366119384766 Z" stroke="none" fill="#fff"/>
  </g>
</svg>
